<?xml version="1.0" encoding="utf-8"?>
<!-- Generator: Adobe Illustrator 15.0.0, SVG Export Plug-In . SVG Version: 6.00 Build 0)  -->
<!DOCTYPE svg PUBLIC "-//W3C//DTD SVG 1.1//EN" "http://www.w3.org/Graphics/SVG/1.1/DTD/svg11.dtd">
<svg version="1.1" id="Layer_1" xmlns="http://www.w3.org/2000/svg" xmlns:xlink="http://www.w3.org/1999/xlink" x="0px" y="0px"
	 width="39.5px" height="42.5px" viewBox="0 0 39.5 42.5" enable-background="new 0 0 39.5 42.5" xml:space="preserve">
<g>
	<defs>
		<rect id="SVGID_1_" width="39.5" height="42.5"/>
	</defs>
	<clipPath id="SVGID_2_">
		<use xlink:href="#SVGID_1_"  overflow="visible"/>
	</clipPath>
	
		<path clip-path="url(#SVGID_2_)" fill="none" stroke="#ffffff" stroke-width="1.5" stroke-linecap="round" stroke-linejoin="round" stroke-miterlimit="10" d="
		M38.75,41.75v-3.772c0-2.535-1.595-4.797-3.982-5.649L24.75,28.75v-5.844"/>
	
		<path clip-path="url(#SVGID_2_)" fill="none" stroke="#ffffff" stroke-width="1.5" stroke-linecap="round" stroke-linejoin="round" stroke-miterlimit="10" d="
		M14.75,23.312v5.437L4.731,32.327c-2.387,0.854-3.981,3.115-3.981,5.65v3.771"/>
	
		<ellipse clip-path="url(#SVGID_2_)" fill="none" stroke="#ffffff" stroke-width="1.5" stroke-linecap="round" stroke-linejoin="round" stroke-miterlimit="10" cx="19.5" cy="12.75" rx="10" ry="12"/>
	
		<path clip-path="url(#SVGID_2_)" fill="none" stroke="#ffffff" stroke-width="1.5" stroke-linecap="round" stroke-linejoin="round" stroke-miterlimit="10" d="
		M29.438,11.656c-0.336,0.04-0.6,0.028-0.937,0.094c-3.407,0.656-5.595-0.578-7.47-3.86c-1.125,2.157-4.643,3.86-7.532,3.86
		c-1.422,0-2.646-0.291-3.871-0.932"/>
</g>
</svg>
